<svg width="733" height="594" viewBox="0 0 733 594" fill="none" xmlns="http://www.w3.org/2000/svg">
<rect width="733" height="594" fill="#1E1E1E"/>
<g id="Logo11-frame" clip-path="url(#clip0_173_11592)">
<g id="Box">
<path id="Icon" d="M161.932 172.26L378 297.248L594.067 172.26M378 546.48V297M600.75 396V198C600.741 189.32 598.45 180.794 594.106 173.279C589.761 165.764 583.518 159.523 576 155.183L402.75 56.1825C395.225 51.838 386.689 49.5508 378 49.5508C369.311 49.5508 360.775 51.838 353.25 56.1825L180 155.183C172.482 159.523 166.239 165.764 161.894 173.279C157.55 180.794 155.259 189.32 155.25 198V396C155.259 404.68 157.55 413.206 161.894 420.721C166.239 428.237 172.482 434.477 180 438.818L353.25 537.818C360.775 542.162 369.311 544.449 378 544.449C386.689 544.449 395.225 542.162 402.75 537.818L576 438.818C583.518 434.477 589.761 428.237 594.106 420.721C598.45 413.206 600.741 404.68 600.75 396Z" stroke="#FF4CED" stroke-width="4" stroke-linecap="round" stroke-linejoin="round"/>
</g>
<g id="Text">
<path id="Weltmodell Kollektiv-Mobilit&#195;&#164;t" d="M197.318 263L183.591 216.455H197.682L204.045 245.091H204.409L211.955 216.455H223.045L230.591 245.182H230.955L237.318 216.455H251.409L237.682 263H225.591L217.682 237H217.318L209.409 263H197.318ZM268.347 263.636C264.619 263.636 261.407 262.924 258.71 261.5C256.028 260.061 253.96 258 252.506 255.318C251.066 252.621 250.347 249.394 250.347 245.636C250.347 242.03 251.074 238.879 252.528 236.182C253.983 233.485 256.036 231.386 258.688 229.886C261.339 228.386 264.468 227.636 268.074 227.636C270.71 227.636 273.097 228.045 275.233 228.864C277.369 229.682 279.195 230.871 280.71 232.432C282.225 233.977 283.392 235.856 284.21 238.068C285.028 240.28 285.438 242.773 285.438 245.545V248.455H254.256V241.545H273.892C273.877 240.545 273.619 239.667 273.119 238.909C272.634 238.136 271.975 237.538 271.142 237.114C270.324 236.674 269.392 236.455 268.347 236.455C267.331 236.455 266.4 236.674 265.551 237.114C264.703 237.538 264.021 238.129 263.506 238.886C263.006 239.644 262.741 240.53 262.71 241.545V249C262.71 250.121 262.945 251.121 263.415 252C263.884 252.879 264.559 253.568 265.438 254.068C266.316 254.568 267.377 254.818 268.619 254.818C269.483 254.818 270.271 254.697 270.983 254.455C271.71 254.212 272.331 253.864 272.847 253.409C273.362 252.939 273.741 252.379 273.983 251.727H285.438C285.044 254.152 284.112 256.258 282.642 258.045C281.172 259.818 279.225 261.197 276.801 262.182C274.392 263.152 271.574 263.636 268.347 263.636ZM303.102 216.455V263H290.557V216.455H303.102ZM330.312 228.091V237.182H307.312V228.091H330.312ZM311.767 219.727H324.312V251.773C324.312 252.258 324.396 252.667 324.562 253C324.729 253.318 324.987 253.561 325.335 253.727C325.684 253.879 326.131 253.955 326.676 253.955C327.055 253.955 327.494 253.909 327.994 253.818C328.509 253.727 328.888 253.652 329.131 253.591L330.949 262.409C330.388 262.576 329.585 262.78 328.54 263.023C327.509 263.265 326.282 263.424 324.858 263.5C321.979 263.652 319.563 263.356 317.608 262.614C315.653 261.856 314.184 260.667 313.199 259.045C312.214 257.424 311.737 255.394 311.767 252.955V219.727ZM335.432 263V228.091H347.341V234.727H347.705C348.432 232.545 349.674 230.818 351.432 229.545C353.189 228.273 355.28 227.636 357.705 227.636C360.159 227.636 362.273 228.288 364.045 229.591C365.818 230.879 366.886 232.591 367.25 234.727H367.614C368.205 232.591 369.462 230.879 371.386 229.591C373.311 228.288 375.568 227.636 378.159 227.636C381.508 227.636 384.22 228.712 386.295 230.864C388.386 233.015 389.432 235.879 389.432 239.455V263H376.886V242.636C376.886 241.106 376.5 239.909 375.727 239.045C374.955 238.167 373.917 237.727 372.614 237.727C371.326 237.727 370.303 238.167 369.545 239.045C368.803 239.909 368.432 241.106 368.432 242.636V263H356.432V242.636C356.432 241.106 356.045 239.909 355.273 239.045C354.5 238.167 353.462 237.727 352.159 237.727C351.295 237.727 350.553 237.924 349.932 238.318C349.311 238.712 348.826 239.28 348.477 240.023C348.144 240.75 347.977 241.621 347.977 242.636V263H335.432ZM412.438 263.636C408.65 263.636 405.407 262.886 402.71 261.386C400.013 259.871 397.945 257.765 396.506 255.068C395.066 252.356 394.347 249.212 394.347 245.636C394.347 242.061 395.066 238.924 396.506 236.227C397.945 233.515 400.013 231.409 402.71 229.909C405.407 228.394 408.65 227.636 412.438 227.636C416.225 227.636 419.468 228.394 422.165 229.909C424.862 231.409 426.93 233.515 428.369 236.227C429.809 238.924 430.528 242.061 430.528 245.636C430.528 249.212 429.809 252.356 428.369 255.068C426.93 257.765 424.862 259.871 422.165 261.386C419.468 262.886 416.225 263.636 412.438 263.636ZM412.528 254.364C413.589 254.364 414.506 254.008 415.278 253.295C416.051 252.583 416.65 251.568 417.074 250.25C417.498 248.932 417.71 247.364 417.71 245.545C417.71 243.712 417.498 242.144 417.074 240.841C416.65 239.523 416.051 238.508 415.278 237.795C414.506 237.083 413.589 236.727 412.528 236.727C411.407 236.727 410.445 237.083 409.642 237.795C408.839 238.508 408.225 239.523 407.801 240.841C407.377 242.144 407.165 243.712 407.165 245.545C407.165 247.364 407.377 248.932 407.801 250.25C408.225 251.568 408.839 252.583 409.642 253.295C410.445 254.008 411.407 254.364 412.528 254.364ZM448.256 263.455C445.771 263.455 443.483 262.803 441.392 261.5C439.316 260.197 437.65 258.22 436.392 255.568C435.15 252.917 434.528 249.576 434.528 245.545C434.528 241.333 435.18 237.909 436.483 235.273C437.801 232.636 439.498 230.705 441.574 229.477C443.665 228.25 445.862 227.636 448.165 227.636C449.892 227.636 451.407 227.939 452.71 228.545C454.013 229.136 455.104 229.932 455.983 230.932C456.862 231.917 457.528 233 457.983 234.182H458.165V216.455H470.71V263H458.256V257.273H457.983C457.498 258.455 456.801 259.515 455.892 260.455C454.998 261.379 453.907 262.114 452.619 262.659C451.347 263.189 449.892 263.455 448.256 263.455ZM452.892 253.818C454.044 253.818 455.028 253.485 455.847 252.818C456.68 252.136 457.316 251.182 457.756 249.955C458.21 248.712 458.438 247.242 458.438 245.545C458.438 243.818 458.21 242.341 457.756 241.114C457.316 239.871 456.68 238.924 455.847 238.273C455.028 237.606 454.044 237.273 452.892 237.273C451.741 237.273 450.756 237.606 449.938 238.273C449.134 238.924 448.513 239.871 448.074 241.114C447.65 242.341 447.438 243.818 447.438 245.545C447.438 247.273 447.65 248.758 448.074 250C448.513 251.227 449.134 252.174 449.938 252.841C450.756 253.492 451.741 253.818 452.892 253.818ZM493.597 263.636C489.869 263.636 486.657 262.924 483.96 261.5C481.278 260.061 479.21 258 477.756 255.318C476.316 252.621 475.597 249.394 475.597 245.636C475.597 242.03 476.324 238.879 477.778 236.182C479.233 233.485 481.286 231.386 483.938 229.886C486.589 228.386 489.718 227.636 493.324 227.636C495.96 227.636 498.347 228.045 500.483 228.864C502.619 229.682 504.445 230.871 505.96 232.432C507.475 233.977 508.642 235.856 509.46 238.068C510.278 240.28 510.688 242.773 510.688 245.545V248.455H479.506V241.545H499.142C499.127 240.545 498.869 239.667 498.369 238.909C497.884 238.136 497.225 237.538 496.392 237.114C495.574 236.674 494.642 236.455 493.597 236.455C492.581 236.455 491.65 236.674 490.801 237.114C489.953 237.538 489.271 238.129 488.756 238.886C488.256 239.644 487.991 240.53 487.96 241.545V249C487.96 250.121 488.195 251.121 488.665 252C489.134 252.879 489.809 253.568 490.688 254.068C491.566 254.568 492.627 254.818 493.869 254.818C494.733 254.818 495.521 254.697 496.233 254.455C496.96 254.212 497.581 253.864 498.097 253.409C498.612 252.939 498.991 252.379 499.233 251.727H510.688C510.294 254.152 509.362 256.258 507.892 258.045C506.422 259.818 504.475 261.197 502.051 262.182C499.642 263.152 496.824 263.636 493.597 263.636ZM528.352 216.455V263H515.807V216.455H528.352ZM547.29 216.455V263H534.744V216.455H547.29ZM69.4062 340V293.455H82.0426V312.273H82.679L96.679 293.455H111.406L95.679 314.182L111.77 340H96.679L86.2244 322.545L82.0426 328V340H69.4062ZM129.594 340.636C125.806 340.636 122.563 339.886 119.866 338.386C117.17 336.871 115.101 334.765 113.662 332.068C112.223 329.356 111.503 326.212 111.503 322.636C111.503 319.061 112.223 315.924 113.662 313.227C115.101 310.515 117.17 308.409 119.866 306.909C122.563 305.394 125.806 304.636 129.594 304.636C133.382 304.636 136.624 305.394 139.321 306.909C142.018 308.409 144.086 310.515 145.526 313.227C146.965 315.924 147.685 319.061 147.685 322.636C147.685 326.212 146.965 329.356 145.526 332.068C144.086 334.765 142.018 336.871 139.321 338.386C136.624 339.886 133.382 340.636 129.594 340.636ZM129.685 331.364C130.745 331.364 131.662 331.008 132.435 330.295C133.207 329.583 133.806 328.568 134.23 327.25C134.654 325.932 134.866 324.364 134.866 322.545C134.866 320.712 134.654 319.144 134.23 317.841C133.806 316.523 133.207 315.508 132.435 314.795C131.662 314.083 130.745 313.727 129.685 313.727C128.563 313.727 127.601 314.083 126.798 314.795C125.995 315.508 125.382 316.523 124.957 317.841C124.533 319.144 124.321 320.712 124.321 322.545C124.321 324.364 124.533 325.932 124.957 327.25C125.382 328.568 125.995 329.583 126.798 330.295C127.601 331.008 128.563 331.364 129.685 331.364ZM165.321 293.455V340H152.776V293.455H165.321ZM184.259 293.455V340H171.713V293.455H184.259ZM207.378 340.636C203.651 340.636 200.438 339.924 197.741 338.5C195.06 337.061 192.991 335 191.537 332.318C190.098 329.621 189.378 326.394 189.378 322.636C189.378 319.03 190.105 315.879 191.56 313.182C193.014 310.485 195.067 308.386 197.719 306.886C200.37 305.386 203.499 304.636 207.105 304.636C209.741 304.636 212.128 305.045 214.264 305.864C216.401 306.682 218.226 307.871 219.741 309.432C221.257 310.977 222.423 312.856 223.241 315.068C224.06 317.28 224.469 319.773 224.469 322.545V325.455H193.287V318.545H212.923C212.908 317.545 212.651 316.667 212.151 315.909C211.666 315.136 211.007 314.538 210.173 314.114C209.355 313.674 208.423 313.455 207.378 313.455C206.363 313.455 205.431 313.674 204.582 314.114C203.734 314.538 203.052 315.129 202.537 315.886C202.037 316.644 201.772 317.53 201.741 318.545V326C201.741 327.121 201.976 328.121 202.446 329C202.916 329.879 203.59 330.568 204.469 331.068C205.348 331.568 206.408 331.818 207.651 331.818C208.514 331.818 209.302 331.697 210.014 331.455C210.741 331.212 211.363 330.864 211.878 330.409C212.393 329.939 212.772 329.379 213.014 328.727H224.469C224.075 331.152 223.143 333.258 221.673 335.045C220.204 336.818 218.257 338.197 215.832 339.182C213.423 340.152 210.605 340.636 207.378 340.636ZM240.861 331.727L240.952 316.818H242.588L251.043 305.091H265.134L250.952 323.364H247.406L240.861 331.727ZM229.588 340V293.455H242.134V340H229.588ZM251.134 340L243.134 326.182L251.315 317.273L265.497 340H251.134ZM289.219 305.091V314.182H266.219V305.091H289.219ZM270.673 296.727H283.219V328.773C283.219 329.258 283.302 329.667 283.469 330C283.635 330.318 283.893 330.561 284.241 330.727C284.59 330.879 285.037 330.955 285.582 330.955C285.961 330.955 286.401 330.909 286.901 330.818C287.416 330.727 287.795 330.652 288.037 330.591L289.855 339.409C289.295 339.576 288.491 339.78 287.446 340.023C286.416 340.265 285.188 340.424 283.764 340.5C280.885 340.652 278.469 340.356 276.514 339.614C274.56 338.856 273.09 337.667 272.105 336.045C271.12 334.424 270.643 332.394 270.673 329.955V296.727ZM294.338 340V305.091H306.884V340H294.338ZM300.611 301.455C298.914 301.455 297.459 300.894 296.247 299.773C295.035 298.652 294.429 297.303 294.429 295.727C294.429 294.152 295.035 292.803 296.247 291.682C297.459 290.561 298.914 290 300.611 290C302.323 290 303.777 290.561 304.974 291.682C306.187 292.803 306.793 294.152 306.793 295.727C306.793 297.303 306.187 298.652 304.974 299.773C303.777 300.894 302.323 301.455 300.611 301.455ZM348.457 305.091L336.73 340H322.185L310.457 305.091H323.639L329.276 328.182H329.639L335.276 305.091H348.457ZM374.935 316.727V326.182H353.116V316.727H374.935ZM382.219 293.455H397.946L408.764 319.818H409.31L420.128 293.455H435.855V340H423.491V313.091H423.128L412.764 339.636H405.31L394.946 312.909H394.582V340H382.219V293.455ZM458.844 340.636C455.056 340.636 451.813 339.886 449.116 338.386C446.42 336.871 444.351 334.765 442.912 332.068C441.473 329.356 440.753 326.212 440.753 322.636C440.753 319.061 441.473 315.924 442.912 313.227C444.351 310.515 446.42 308.409 449.116 306.909C451.813 305.394 455.056 304.636 458.844 304.636C462.632 304.636 465.874 305.394 468.571 306.909C471.268 308.409 473.336 310.515 474.776 313.227C476.215 315.924 476.935 319.061 476.935 322.636C476.935 326.212 476.215 329.356 474.776 332.068C473.336 334.765 471.268 336.871 468.571 338.386C465.874 339.886 462.632 340.636 458.844 340.636ZM458.935 331.364C459.995 331.364 460.912 331.008 461.685 330.295C462.457 329.583 463.056 328.568 463.48 327.25C463.904 325.932 464.116 324.364 464.116 322.545C464.116 320.712 463.904 319.144 463.48 317.841C463.056 316.523 462.457 315.508 461.685 314.795C460.912 314.083 459.995 313.727 458.935 313.727C457.813 313.727 456.851 314.083 456.048 314.795C455.245 315.508 454.632 316.523 454.207 317.841C453.783 319.144 453.571 320.712 453.571 322.545C453.571 324.364 453.783 325.932 454.207 327.25C454.632 328.568 455.245 329.583 456.048 330.295C456.851 331.008 457.813 331.364 458.935 331.364ZM481.844 340V293.455H494.389V311.182H494.571C495.026 310 495.692 308.917 496.571 307.932C497.45 306.932 498.541 306.136 499.844 305.545C501.147 304.939 502.662 304.636 504.389 304.636C506.692 304.636 508.882 305.25 510.957 306.477C513.048 307.705 514.745 309.636 516.048 312.273C517.366 314.909 518.026 318.333 518.026 322.545C518.026 326.576 517.397 329.917 516.139 332.568C514.897 335.22 513.23 337.197 511.139 338.5C509.063 339.803 506.783 340.455 504.298 340.455C502.662 340.455 501.2 340.189 499.912 339.659C498.639 339.114 497.548 338.379 496.639 337.455C495.745 336.515 495.056 335.455 494.571 334.273H494.298V340H481.844ZM494.116 322.545C494.116 324.242 494.336 325.712 494.776 326.955C495.23 328.182 495.866 329.136 496.685 329.818C497.518 330.485 498.51 330.818 499.662 330.818C500.813 330.818 501.791 330.492 502.594 329.841C503.412 329.174 504.033 328.227 504.457 327C504.897 325.758 505.116 324.273 505.116 322.545C505.116 320.818 504.897 319.341 504.457 318.114C504.033 316.871 503.412 315.924 502.594 315.273C501.791 314.606 500.813 314.273 499.662 314.273C498.51 314.273 497.518 314.606 496.685 315.273C495.866 315.924 495.23 316.871 494.776 318.114C494.336 319.341 494.116 320.818 494.116 322.545ZM523.276 340V305.091H535.821V340H523.276ZM529.548 301.455C527.851 301.455 526.397 300.894 525.185 299.773C523.973 298.652 523.366 297.303 523.366 295.727C523.366 294.152 523.973 292.803 525.185 291.682C526.397 290.561 527.851 290 529.548 290C531.26 290 532.715 290.561 533.912 291.682C535.124 292.803 535.73 294.152 535.73 295.727C535.73 297.303 535.124 298.652 533.912 299.773C532.715 300.894 531.26 301.455 529.548 301.455ZM554.759 293.455V340H542.213V293.455H554.759ZM561.151 340V305.091H573.696V340H561.151ZM567.423 301.455C565.726 301.455 564.272 300.894 563.06 299.773C561.848 298.652 561.241 297.303 561.241 295.727C561.241 294.152 561.848 292.803 563.06 291.682C564.272 290.561 565.726 290 567.423 290C569.135 290 570.59 290.561 571.787 291.682C572.999 292.803 573.605 294.152 573.605 295.727C573.605 297.303 572.999 298.652 571.787 299.773C570.59 300.894 569.135 301.455 567.423 301.455ZM600.906 305.091V314.182H577.906V305.091H600.906ZM582.361 296.727H594.906V328.773C594.906 329.258 594.99 329.667 595.156 330C595.323 330.318 595.58 330.561 595.929 330.727C596.277 330.879 596.724 330.955 597.27 330.955C597.649 330.955 598.088 330.909 598.588 330.818C599.103 330.727 599.482 330.652 599.724 330.591L601.543 339.409C600.982 339.576 600.179 339.78 599.134 340.023C598.103 340.265 596.876 340.424 595.452 340.5C592.573 340.652 590.156 340.356 588.202 339.614C586.247 338.856 584.777 337.667 583.793 336.045C582.808 334.424 582.33 332.394 582.361 329.955V296.727ZM615.753 340.545C613.526 340.545 611.556 340.182 609.844 339.455C608.147 338.712 606.813 337.591 605.844 336.091C604.874 334.591 604.389 332.682 604.389 330.364C604.389 328.455 604.715 326.826 605.366 325.477C606.018 324.114 606.927 323 608.094 322.136C609.26 321.273 610.616 320.614 612.162 320.159C613.723 319.705 615.404 319.409 617.207 319.273C619.162 319.121 620.73 318.939 621.912 318.727C623.109 318.5 623.973 318.189 624.503 317.795C625.033 317.386 625.298 316.848 625.298 316.182V316.091C625.298 315.182 624.95 314.485 624.253 314C623.556 313.515 622.662 313.273 621.571 313.273C620.374 313.273 619.397 313.538 618.639 314.068C617.897 314.583 617.45 315.379 617.298 316.455H605.753C605.904 314.333 606.579 312.379 607.776 310.591C608.988 308.788 610.753 307.348 613.071 306.273C615.389 305.182 618.283 304.636 621.753 304.636C624.253 304.636 626.495 304.932 628.48 305.523C630.465 306.098 632.154 306.909 633.548 307.955C634.942 308.985 636.003 310.197 636.73 311.591C637.473 312.97 637.844 314.47 637.844 316.091V340H626.116V335.091H625.844C625.147 336.394 624.298 337.447 623.298 338.25C622.313 339.053 621.185 339.636 619.912 340C618.654 340.364 617.268 340.545 615.753 340.545ZM619.844 332.636C620.798 332.636 621.692 332.439 622.526 332.045C623.374 331.652 624.063 331.083 624.594 330.341C625.124 329.598 625.389 328.697 625.389 327.636V324.727C625.056 324.864 624.7 324.992 624.321 325.114C623.957 325.235 623.563 325.348 623.139 325.455C622.73 325.561 622.291 325.659 621.821 325.75C621.366 325.841 620.889 325.924 620.389 326C619.42 326.152 618.624 326.402 618.003 326.75C617.397 327.083 616.942 327.5 616.639 328C616.351 328.485 616.207 329.03 616.207 329.636C616.207 330.606 616.548 331.348 617.23 331.864C617.912 332.379 618.783 332.636 619.844 332.636ZM614.935 301C613.389 301 612.079 300.485 611.003 299.455C609.927 298.424 609.389 297.182 609.389 295.727C609.389 294.273 609.927 293.03 611.003 292C612.079 290.97 613.389 290.455 614.935 290.455C616.435 290.455 617.715 290.97 618.776 292C619.851 293.03 620.389 294.273 620.389 295.727C620.389 297.182 619.851 298.424 618.776 299.455C617.715 300.485 616.435 301 614.935 301ZM629.389 301C627.844 301 626.533 300.485 625.457 299.455C624.382 298.424 623.844 297.182 623.844 295.727C623.844 294.273 624.382 293.03 625.457 292C626.533 290.97 627.844 290.455 629.389 290.455C630.889 290.455 632.17 290.97 633.23 292C634.306 293.03 634.844 294.273 634.844 295.727C634.844 297.182 634.306 298.424 633.23 299.455C632.17 300.485 630.889 301 629.389 301ZM664.656 305.091V314.182H641.656V305.091H664.656ZM646.111 296.727H658.656V328.773C658.656 329.258 658.74 329.667 658.906 330C659.073 330.318 659.33 330.561 659.679 330.727C660.027 330.879 660.474 330.955 661.02 330.955C661.399 330.955 661.838 330.909 662.338 330.818C662.853 330.727 663.232 330.652 663.474 330.591L665.293 339.409C664.732 339.576 663.929 339.78 662.884 340.023C661.853 340.265 660.626 340.424 659.202 340.5C656.323 340.652 653.906 340.356 651.952 339.614C649.997 338.856 648.527 337.667 647.543 336.045C646.558 334.424 646.08 332.394 646.111 329.955V296.727Z" fill="white"/>
<path id="Mitfahren, Mitgestalten" d="M239.51 374.545H241.35L247.683 389.75H247.836L254.169 374.545H256.01V392H254.51V377.912H254.373L248.484 392H247.035L241.146 377.912H241.01V392H239.51V374.545ZM260.352 392V378.909H261.877V392H260.352ZM261.127 376.659C260.815 376.659 260.548 376.554 260.326 376.344C260.105 376.128 259.994 375.869 259.994 375.568C259.994 375.267 260.105 375.011 260.326 374.801C260.548 374.585 260.815 374.477 261.127 374.477C261.44 374.477 261.707 374.585 261.929 374.801C262.15 375.011 262.261 375.267 262.261 375.568C262.261 375.869 262.15 376.128 261.929 376.344C261.707 376.554 261.44 376.659 261.127 376.659ZM271.046 378.909V380.23H264.799V378.909H271.046ZM266.75 375.773H268.276V388.582C268.276 389.128 268.37 389.557 268.557 389.869C268.745 390.176 268.989 390.395 269.29 390.526C269.591 390.651 269.912 390.713 270.253 390.713C270.452 390.713 270.623 390.702 270.765 390.679C270.907 390.651 271.032 390.622 271.14 390.594L271.463 391.966C271.316 392.023 271.134 392.074 270.918 392.119C270.702 392.17 270.435 392.196 270.117 392.196C269.56 392.196 269.023 392.074 268.506 391.83C267.995 391.585 267.574 391.222 267.245 390.739C266.915 390.256 266.75 389.656 266.75 388.94V375.773ZM279.877 378.909V380.23H273.443V378.909H279.877ZM275.454 392V376.991C275.454 376.287 275.616 375.693 275.94 375.21C276.27 374.727 276.699 374.361 277.227 374.111C277.755 373.861 278.315 373.736 278.906 373.736C279.304 373.736 279.633 373.77 279.895 373.838C280.162 373.901 280.372 373.963 280.525 374.026L280.082 375.355C279.968 375.321 279.829 375.281 279.664 375.236C279.5 375.19 279.292 375.168 279.042 375.168C278.383 375.168 277.875 375.352 277.517 375.722C277.159 376.091 276.98 376.619 276.98 377.307L276.971 392H275.454ZM286.21 392.298C285.42 392.298 284.699 392.145 284.045 391.838C283.392 391.526 282.872 391.077 282.485 390.491C282.099 389.901 281.906 389.185 281.906 388.344C281.906 387.696 282.028 387.151 282.272 386.707C282.517 386.264 282.863 385.901 283.312 385.616C283.761 385.332 284.292 385.108 284.906 384.943C285.52 384.778 286.196 384.651 286.934 384.56C287.667 384.469 288.287 384.389 288.792 384.321C289.304 384.253 289.693 384.145 289.96 383.997C290.227 383.849 290.36 383.611 290.36 383.281V382.974C290.36 382.082 290.093 381.381 289.559 380.869C289.031 380.352 288.27 380.094 287.275 380.094C286.332 380.094 285.562 380.301 284.966 380.716C284.375 381.131 283.96 381.619 283.721 382.182L282.281 381.662C282.576 380.946 282.985 380.375 283.508 379.949C284.031 379.517 284.616 379.207 285.264 379.02C285.912 378.827 286.568 378.73 287.233 378.73C287.733 378.73 288.252 378.795 288.792 378.926C289.338 379.057 289.843 379.284 290.309 379.608C290.775 379.926 291.153 380.372 291.443 380.946C291.733 381.514 291.877 382.236 291.877 383.111V392H290.36V389.929H290.267C290.085 390.315 289.815 390.69 289.457 391.054C289.099 391.418 288.65 391.716 288.11 391.949C287.571 392.182 286.937 392.298 286.21 392.298ZM286.414 390.909C287.221 390.909 287.92 390.73 288.511 390.372C289.102 390.014 289.556 389.54 289.875 388.949C290.199 388.352 290.36 387.696 290.36 386.98V385.088C290.247 385.196 290.056 385.293 289.789 385.378C289.528 385.463 289.224 385.54 288.877 385.608C288.537 385.67 288.196 385.724 287.855 385.77C287.514 385.815 287.207 385.855 286.934 385.889C286.196 385.98 285.565 386.122 285.042 386.315C284.52 386.509 284.119 386.776 283.841 387.116C283.562 387.452 283.423 387.884 283.423 388.412C283.423 389.207 283.707 389.824 284.275 390.261C284.843 390.693 285.556 390.909 286.414 390.909ZM297.43 383.818V392H295.913V374.545H297.43V380.963H297.566C297.873 380.287 298.348 379.747 298.99 379.344C299.637 378.94 300.456 378.739 301.444 378.739C302.331 378.739 303.109 378.92 303.779 379.284C304.45 379.648 304.973 380.185 305.348 380.895C305.723 381.605 305.91 382.48 305.91 383.52V392H304.385V383.614C304.385 382.534 304.083 381.685 303.481 381.065C302.885 380.44 302.078 380.128 301.061 380.128C300.362 380.128 299.74 380.276 299.194 380.571C298.649 380.866 298.217 381.293 297.899 381.849C297.586 382.401 297.43 383.057 297.43 383.818ZM309.905 392V378.909H311.38V380.92H311.49C311.752 380.261 312.206 379.73 312.854 379.327C313.507 378.918 314.246 378.713 315.07 378.713C315.195 378.713 315.334 378.716 315.488 378.722C315.641 378.727 315.769 378.733 315.871 378.739V380.281C315.803 380.27 315.684 380.253 315.513 380.23C315.343 380.207 315.158 380.196 314.959 380.196C314.277 380.196 313.669 380.341 313.135 380.631C312.607 380.915 312.189 381.31 311.882 381.815C311.576 382.321 311.422 382.898 311.422 383.545V392H309.905ZM323.354 392.273C322.132 392.273 321.076 391.989 320.184 391.42C319.292 390.847 318.601 390.054 318.113 389.043C317.63 388.026 317.388 386.855 317.388 385.531C317.388 384.213 317.63 383.043 318.113 382.02C318.601 380.991 319.275 380.187 320.132 379.608C320.996 379.023 321.993 378.73 323.124 378.73C323.834 378.73 324.519 378.861 325.178 379.122C325.837 379.378 326.428 379.773 326.951 380.307C327.479 380.835 327.897 381.503 328.203 382.31C328.51 383.111 328.664 384.06 328.664 385.156V385.906H318.436V384.568H327.113C327.113 383.727 326.942 382.972 326.601 382.301C326.266 381.625 325.797 381.091 325.195 380.699C324.598 380.307 323.908 380.111 323.124 380.111C322.294 380.111 321.564 380.332 320.934 380.776C320.303 381.219 319.809 381.804 319.451 382.531C319.098 383.259 318.919 384.054 318.914 384.918V385.719C318.914 386.759 319.093 387.668 319.451 388.446C319.814 389.219 320.328 389.818 320.993 390.244C321.658 390.67 322.445 390.884 323.354 390.884C323.973 390.884 324.516 390.787 324.982 390.594C325.453 390.401 325.848 390.142 326.167 389.818C326.49 389.489 326.735 389.128 326.9 388.736L328.34 389.205C328.141 389.756 327.814 390.264 327.36 390.73C326.911 391.196 326.348 391.571 325.672 391.855C325.002 392.134 324.229 392.273 323.354 392.273ZM333.524 383.818V392H332.007V378.909H333.481V380.963H333.618C333.924 380.293 334.402 379.756 335.049 379.352C335.703 378.943 336.51 378.739 337.47 378.739C338.35 378.739 339.123 378.923 339.788 379.293C340.458 379.656 340.978 380.193 341.348 380.903C341.723 381.614 341.91 382.486 341.91 383.52V392H340.393V383.614C340.393 382.54 340.092 381.69 339.49 381.065C338.893 380.44 338.092 380.128 337.086 380.128C336.399 380.128 335.788 380.276 335.254 380.571C334.72 380.866 334.297 381.293 333.984 381.849C333.677 382.401 333.524 383.057 333.524 383.818ZM348.428 389.614L348.275 390.526C348.178 391.139 348.042 391.815 347.865 392.554C347.689 393.293 347.507 393.994 347.32 394.659C347.132 395.324 346.971 395.858 346.834 396.261H345.667C345.74 395.875 345.834 395.384 345.948 394.787C346.067 394.19 346.189 393.528 346.314 392.801C346.439 392.08 346.553 391.335 346.655 390.568L346.775 389.614H348.428ZM359.51 374.545H361.35L367.683 389.75H367.836L374.169 374.545H376.01V392H374.51V377.912H374.373L368.484 392H367.035L361.146 377.912H361.01V392H359.51V374.545ZM380.352 392V378.909H381.877V392H380.352ZM381.127 376.659C380.815 376.659 380.548 376.554 380.326 376.344C380.105 376.128 379.994 375.869 379.994 375.568C379.994 375.267 380.105 375.011 380.326 374.801C380.548 374.585 380.815 374.477 381.127 374.477C381.44 374.477 381.707 374.585 381.929 374.801C382.15 375.011 382.261 375.267 382.261 375.568C382.261 375.869 382.15 376.128 381.929 376.344C381.707 376.554 381.44 376.659 381.127 376.659ZM391.046 378.909V380.23H384.799V378.909H391.046ZM386.75 375.773H388.276V388.582C388.276 389.128 388.37 389.557 388.557 389.869C388.745 390.176 388.989 390.395 389.29 390.526C389.591 390.651 389.912 390.713 390.253 390.713C390.452 390.713 390.623 390.702 390.765 390.679C390.907 390.651 391.032 390.622 391.14 390.594L391.463 391.966C391.316 392.023 391.134 392.074 390.918 392.119C390.702 392.17 390.435 392.196 390.117 392.196C389.56 392.196 389.023 392.074 388.506 391.83C387.995 391.585 387.574 391.222 387.245 390.739C386.915 390.256 386.75 389.656 386.75 388.94V375.773ZM399.345 397.182C398.453 397.182 397.672 397.065 397.001 396.832C396.331 396.605 395.765 396.293 395.305 395.895C394.845 395.497 394.487 395.051 394.231 394.557L395.475 393.739C395.663 394.068 395.913 394.392 396.225 394.71C396.544 395.028 396.956 395.293 397.461 395.503C397.973 395.713 398.6 395.818 399.345 395.818C400.504 395.818 401.439 395.528 402.149 394.949C402.865 394.369 403.223 393.469 403.223 392.247V389.298H403.086C402.91 389.696 402.657 390.094 402.328 390.491C401.998 390.884 401.566 391.21 401.032 391.472C400.504 391.733 399.848 391.864 399.064 391.864C398.018 391.864 397.089 391.605 396.277 391.088C395.47 390.571 394.833 389.832 394.368 388.872C393.907 387.906 393.677 386.756 393.677 385.42C393.677 384.097 393.902 382.932 394.35 381.926C394.805 380.92 395.439 380.136 396.251 379.574C397.064 379.011 398.01 378.73 399.089 378.73C399.89 378.73 400.555 378.872 401.083 379.156C401.612 379.435 402.035 379.781 402.353 380.196C402.677 380.611 402.93 381.014 403.112 381.406H403.265V378.909H404.748V392.341C404.748 393.449 404.512 394.361 404.041 395.077C403.569 395.793 402.927 396.321 402.115 396.662C401.302 397.009 400.379 397.182 399.345 397.182ZM399.243 390.474C400.083 390.474 400.802 390.273 401.399 389.869C401.995 389.46 402.453 388.875 402.771 388.114C403.089 387.352 403.248 386.446 403.248 385.395C403.248 384.372 403.092 383.466 402.779 382.676C402.467 381.881 402.012 381.256 401.416 380.801C400.825 380.341 400.1 380.111 399.243 380.111C398.368 380.111 397.629 380.347 397.027 380.818C396.424 381.29 395.97 381.926 395.663 382.727C395.356 383.523 395.203 384.412 395.203 385.395C395.203 386.395 395.359 387.278 395.672 388.045C395.984 388.807 396.441 389.403 397.044 389.835C397.646 390.261 398.379 390.474 399.243 390.474ZM414.057 392.273C412.836 392.273 411.779 391.989 410.887 391.42C409.995 390.847 409.304 390.054 408.816 389.043C408.333 388.026 408.091 386.855 408.091 385.531C408.091 384.213 408.333 383.043 408.816 382.02C409.304 380.991 409.978 380.187 410.836 379.608C411.699 379.023 412.696 378.73 413.827 378.73C414.537 378.73 415.222 378.861 415.881 379.122C416.54 379.378 417.131 379.773 417.654 380.307C418.182 380.835 418.6 381.503 418.907 382.31C419.213 383.111 419.367 384.06 419.367 385.156V385.906H409.14V384.568H417.816C417.816 383.727 417.645 382.972 417.304 382.301C416.969 381.625 416.5 381.091 415.898 380.699C415.301 380.307 414.611 380.111 413.827 380.111C412.998 380.111 412.267 380.332 411.637 380.776C411.006 381.219 410.512 381.804 410.154 382.531C409.801 383.259 409.623 384.054 409.617 384.918V385.719C409.617 386.759 409.796 387.668 410.154 388.446C410.517 389.219 411.032 389.818 411.696 390.244C412.361 390.67 413.148 390.884 414.057 390.884C414.676 390.884 415.219 390.787 415.685 390.594C416.157 390.401 416.551 390.142 416.87 389.818C417.194 389.489 417.438 389.128 417.603 388.736L419.043 389.205C418.844 389.756 418.517 390.264 418.063 390.73C417.614 391.196 417.051 391.571 416.375 391.855C415.705 392.134 414.932 392.273 414.057 392.273ZM431.505 381.781L430.116 382.173C429.98 381.781 429.787 381.426 429.537 381.108C429.287 380.79 428.96 380.537 428.556 380.349C428.159 380.162 427.664 380.068 427.074 380.068C426.187 380.068 425.46 380.278 424.892 380.699C424.324 381.119 424.039 381.662 424.039 382.327C424.039 382.889 424.233 383.347 424.619 383.699C425.011 384.045 425.613 384.321 426.426 384.526L428.403 385.011C429.5 385.278 430.321 385.702 430.866 386.281C431.417 386.861 431.693 387.588 431.693 388.463C431.693 389.202 431.488 389.858 431.079 390.432C430.67 391.006 430.099 391.457 429.366 391.787C428.639 392.111 427.795 392.273 426.835 392.273C425.556 392.273 424.502 391.986 423.673 391.412C422.843 390.832 422.312 389.997 422.079 388.906L423.537 388.548C423.724 389.327 424.091 389.915 424.636 390.312C425.187 390.71 425.912 390.909 426.809 390.909C427.815 390.909 428.619 390.685 429.221 390.236C429.824 389.781 430.125 389.213 430.125 388.531C430.125 388.003 429.949 387.56 429.596 387.202C429.244 386.838 428.71 386.571 427.994 386.401L425.855 385.889C424.718 385.616 423.877 385.185 423.332 384.594C422.787 384.003 422.514 383.27 422.514 382.395C422.514 381.673 422.71 381.04 423.102 380.494C423.494 379.943 424.034 379.511 424.721 379.199C425.409 378.886 426.193 378.73 427.074 378.73C428.272 378.73 429.23 379.003 429.946 379.548C430.667 380.088 431.187 380.832 431.505 381.781ZM440.171 378.909V380.23H433.924V378.909H440.171ZM435.875 375.773H437.401V388.582C437.401 389.128 437.495 389.557 437.682 389.869C437.87 390.176 438.114 390.395 438.415 390.526C438.716 390.651 439.037 390.713 439.378 390.713C439.577 390.713 439.748 390.702 439.89 390.679C440.032 390.651 440.157 390.622 440.265 390.594L440.588 391.966C440.441 392.023 440.259 392.074 440.043 392.119C439.827 392.17 439.56 392.196 439.242 392.196C438.685 392.196 438.148 392.074 437.631 391.83C437.12 391.585 436.699 391.222 436.37 390.739C436.04 390.256 435.875 389.656 435.875 388.94V375.773ZM447.272 392.298C446.483 392.298 445.761 392.145 445.108 391.838C444.454 391.526 443.934 391.077 443.548 390.491C443.162 389.901 442.968 389.185 442.968 388.344C442.968 387.696 443.091 387.151 443.335 386.707C443.579 386.264 443.926 385.901 444.375 385.616C444.824 385.332 445.355 385.108 445.968 384.943C446.582 384.778 447.258 384.651 447.997 384.56C448.73 384.469 449.349 384.389 449.855 384.321C450.366 384.253 450.755 384.145 451.022 383.997C451.289 383.849 451.423 383.611 451.423 383.281V382.974C451.423 382.082 451.156 381.381 450.622 380.869C450.093 380.352 449.332 380.094 448.338 380.094C447.395 380.094 446.625 380.301 446.028 380.716C445.437 381.131 445.022 381.619 444.784 382.182L443.343 381.662C443.639 380.946 444.048 380.375 444.571 379.949C445.093 379.517 445.679 379.207 446.326 379.02C446.974 378.827 447.63 378.73 448.295 378.73C448.795 378.73 449.315 378.795 449.855 378.926C450.4 379.057 450.906 379.284 451.372 379.608C451.838 379.926 452.216 380.372 452.505 380.946C452.795 381.514 452.94 382.236 452.94 383.111V392H451.423V389.929H451.329C451.147 390.315 450.877 390.69 450.52 391.054C450.162 391.418 449.713 391.716 449.173 391.949C448.633 392.182 448 392.298 447.272 392.298ZM447.477 390.909C448.284 390.909 448.983 390.73 449.574 390.372C450.164 390.014 450.619 389.54 450.937 388.949C451.261 388.352 451.423 387.696 451.423 386.98V385.088C451.309 385.196 451.119 385.293 450.852 385.378C450.591 385.463 450.287 385.54 449.94 385.608C449.599 385.67 449.258 385.724 448.917 385.77C448.576 385.815 448.27 385.855 447.997 385.889C447.258 385.98 446.627 386.122 446.105 386.315C445.582 386.509 445.181 386.776 444.903 387.116C444.625 387.452 444.485 387.884 444.485 388.412C444.485 389.207 444.77 389.824 445.338 390.261C445.906 390.693 446.619 390.909 447.477 390.909ZM458.493 374.545V392H456.975V374.545H458.493ZM467.663 378.909V380.23H461.416V378.909H467.663ZM463.368 375.773H464.893V388.582C464.893 389.128 464.987 389.557 465.174 389.869C465.362 390.176 465.606 390.395 465.907 390.526C466.208 390.651 466.529 390.713 466.87 390.713C467.069 390.713 467.24 390.702 467.382 390.679C467.524 390.651 467.649 390.622 467.757 390.594L468.081 391.966C467.933 392.023 467.751 392.074 467.535 392.119C467.319 392.17 467.052 392.196 466.734 392.196C466.177 392.196 465.64 392.074 465.123 391.83C464.612 391.585 464.191 391.222 463.862 390.739C463.532 390.256 463.368 389.656 463.368 388.94V375.773ZM476.26 392.273C475.039 392.273 473.982 391.989 473.09 391.42C472.198 390.847 471.507 390.054 471.019 389.043C470.536 388.026 470.294 386.855 470.294 385.531C470.294 384.213 470.536 383.043 471.019 382.02C471.507 380.991 472.181 380.187 473.039 379.608C473.902 379.023 474.9 378.73 476.03 378.73C476.74 378.73 477.425 378.861 478.084 379.122C478.743 379.378 479.334 379.773 479.857 380.307C480.385 380.835 480.803 381.503 481.11 382.31C481.417 383.111 481.57 384.06 481.57 385.156V385.906H471.343V384.568H480.019C480.019 383.727 479.848 382.972 479.507 382.301C479.172 381.625 478.703 381.091 478.101 380.699C477.505 380.307 476.814 380.111 476.03 380.111C475.201 380.111 474.471 380.332 473.84 380.776C473.209 381.219 472.715 381.804 472.357 382.531C472.005 383.259 471.826 384.054 471.82 384.918V385.719C471.82 386.759 471.999 387.668 472.357 388.446C472.721 389.219 473.235 389.818 473.9 390.244C474.564 390.67 475.351 390.884 476.26 390.884C476.88 390.884 477.422 390.787 477.888 390.594C478.36 390.401 478.755 390.142 479.073 389.818C479.397 389.489 479.641 389.128 479.806 388.736L481.246 389.205C481.047 389.756 480.721 390.264 480.266 390.73C479.817 391.196 479.255 391.571 478.578 391.855C477.908 392.134 477.135 392.273 476.26 392.273ZM486.43 383.818V392H484.913V378.909H486.387V380.963H486.524C486.831 380.293 487.308 379.756 487.956 379.352C488.609 378.943 489.416 378.739 490.376 378.739C491.257 378.739 492.029 378.923 492.694 379.293C493.365 379.656 493.885 380.193 494.254 380.903C494.629 381.614 494.816 382.486 494.816 383.52V392H493.299V383.614C493.299 382.54 492.998 381.69 492.396 381.065C491.799 380.44 490.998 380.128 489.993 380.128C489.305 380.128 488.694 380.276 488.16 380.571C487.626 380.866 487.203 381.293 486.89 381.849C486.583 382.401 486.43 383.057 486.43 383.818Z" fill="white"/>
</g>
</g>
<defs>
<clipPath id="clip0_173_11592">
<rect width="733" height="594" fill="white"/>
</clipPath>
</defs>
</svg>
